<svg width="177" height="52" fill="none" id="svg1011929192_18173" xmlns="http://www.w3.org/2000/svg">
  <g clip-path="url(#svg1011929192_18173_a)" fill="#000">
    <path d="M50.64 24.274c-.037-1.15-.553-1.856-1.438-2.375-.037-.037-.074-.037-.111-.075-1.66-1.076-3.504-1.484-5.422-1.633-.184 0-.369-.074-.59-.148.148-.371.332-.668.369-1.002.11-.52.405-.631.885-.631 1.512.037 3.024.037 4.537.037.184 0 .405-.037.7-.037-.405-1.04-.774-1.93-1.106-2.858-.11-.334-.332-.446-.664-.446-1.18 0-2.397 0-3.578-.037-.405 0-.59.112-.737.52-.886 2.487-1.77 4.936-2.656 7.423-.11.26-.184.557-.332.928h1.623c2.213.111 4.278.594 6.012 2.079.996.853 1.438 1.967 1.328 3.303-.111 1.262-1.217 2.227-2.471 2.227-.886 0-1.586-.445-2.287-.89-.627-.41-1.254-.817-1.955-1.151-.811-.372-1.475-.149-1.992.556-.258.371-.48.223-.59-.037-.147-.334-.184-.742-.184-1.113 0-2.747 0-5.456.037-8.203v-.78c-1.033.446-1.992.817-2.988 1.225-.295-1.262-1.18-2.004-2.176-2.635.295-.26.59-.445.775-.668.258-.334.442-.334.811-.111.738.482 1.55.63 2.398.408 1.475-.371 2.397-1.41 2.913-2.82.701-1.931.885-3.972.517-5.977-.185-1.039-.48-2.115-.996-3.006-1.254-2.227-3.873-2.487-5.68-.668-.074.074-.148.111-.295.26 0-.446-.037-.743 0-1.04.037-.37-.074-.593-.48-.556-.406.037-.48-.186-.442-.52-.074-.482-.074-1.04-.074-1.596 0-.148-.037-.371-.11-.408-.665-.26-1.329-.483-2.103-.78v2.858c0 .186-.148.483-.221.483-.849.037-1.697.037-2.73.037.922-1.225 1.697-2.301 2.508-3.415-.663-.26-.663-.26-.995.149-.554.742-1.107 1.521-1.697 2.227-.517.593-.811 1.224-.7 2.041.036.334-.075.52-.444.631-3.245.817-5.163 3.266-5.126 6.57.037 2.004.922 3.303 2.766 4.045.037 0 .037.075.037.149-.848.37-1.66.78-2.508 1.15.037.075.037.149.074.223.184-.037.369-.074.59-.111.774-.186 1.18.111 1.18.928 0 2.152-.037 4.305-.037 6.458 0 .89-.442 1.225-1.29 1.113-.148-1.187-.259-2.412-.443-3.563-.222-1.262-.996-2.153-2.14-2.784.185-.037.296-.074.443-.037.516.075.775-.074.848-.668.074-.78.295-1.521.443-2.301.037-.148 0-.26 0-.408-.037 0-.074-.037-.148-.075-.11.149-.22.335-.368.446-.259.223-.517.594-.775.594-1.143.074-2.287.037-3.43.037-.037-.037-.074-.111-.11-.149.479-.445.995-.853 1.438-1.336 1.032-1.113 2.028-2.19 2.618-3.637 1.033-2.598-.848-4.714-3.098-4.565-1.512.11-2.803 1.113-3.32 2.857-.036.149 0 .297 0 .483.148-.074.333-.149.407-.26.7-.854 1.66-1.188 2.508-.854.885.372 1.438 1.374 1.18 2.487-.221.891-.48 1.819-.96 2.598-.958 1.485-2.101 2.821-3.134 4.232-.074-.037-.11-.037-.185-.075V16.22c-.7-.186-1.106-.037-1.512.52a134.02 134.02 0 0 1-3.872 5.159c-.517.63-.701 1.299-.664 2.115.037.372.11.52.48.52.921 0 1.843.037 2.802 0 .406 0 .553.148.517.557-.037.556 0 1.076 0 1.707.59 0 1.106-.037 1.622 0 .443.037.627-.074.59-.557-.036-.556 0-1.076 0-1.67.296 0 .48.037.628 0 .11-.037.295-.186.295-.297.037-.445 0-.854 0-1.336-.332-.037-.59-.037-.849-.074v-2.598h3.8c-1.144.556-1.882 1.447-2.177 2.672-.221.817-.369 1.633-.369 2.487-.037 1.002.111 2.041.185 3.117h-.517c-1.217 0-2.434 0-3.651-.037-.369 0-.553.112-.664.446-.295.928-.664 1.819-.996 2.746-.332.891-.627 1.782-.959 2.747h1.144c1.328.037 2.582.371 3.688 1.15.59.446 1.033 1.003 1.217 1.745.184.854-.074 1.633-.7 2.079-.702.482-1.402.408-2.066-.038-.443-.26-.848-.593-1.291-.853-.369-.186-.59-.446-.774-.817-.664-1.336-1.66-2.153-3.21-2.153-.11 0-.184-.037-.368-.074.959-1.188 1.29-2.486 1.18-3.934-.11-1.559-1.106-2.487-2.397-3.23 1.364-1.038 2.286-2.226 1.586-3.97-.664-1.67-2.103-2.153-3.8-2.08.111-.073.185-.11.259-.148 4.278-1.187 6.639-4.862 5.938-9.242-.295-1.893-1.29-3.303-3.246-3.897-1.217-.371-1.991-.148-2.766.891-.627.817-1.217 1.707-1.844 2.561-.369.52-.443 1.076-.406 1.67.148 1.967 1.623 3.49 3.504 3.304.553-.038 1.07-.186 1.734-.297-.222.593-.37 1.15-.627 1.707-.922 2.004-2.73 2.858-4.721 3.489.184.111.368.148.516.148.184 0 .332-.037.516-.074.148 0 .332-.037.48-.037C1.77 22.827.738 24.126.11 25.833a.902.902 0 0 0 .553-.186c.442-.334.811-.779 1.254-1.039.959-.482 2.065-.26 2.692.446.701.779.738 1.818.185 2.82-.406.743-1.07 1.077-1.844 1.337-.222.074-.443.26-.664.37.221.112.405.298.627.372 1.18.445 2.213 1.076 2.877 2.227.442.742.627 1.559.516 2.413-.184 1.67-1.807 2.338-3.283 1.373-.516-.334-.959-.743-1.438-1.114-.48-.37-.959-.445-1.586-.222.258.705.516 1.336.738 1.967.184.594.59.816 1.217.816 1.143-.074 2.287-.111 3.393-.185-.775 1.484-.996 3.192-.959 4.973 0 .223.074.52.221.668.738.854 1.513 1.67 2.36 2.599.038-.26.075-.335.075-.446 0-2.078 0-4.157.036-6.235 0-.631.074-1.3.222-1.93.11-.446.405-.78.922-.743.553.037.774.371.885.817.11.408.148.854.148 1.299 0 2.301 0 4.602-.037 6.94 0 .446-.074.891-.222 1.3-.11.37-.147.556.185.816.369.26.59.149.848-.111.369-.371.775-.742 1.033-1.225.59-1.076.811-2.264.885-3.452.037-.63 0-1.262 0-1.856.848-.074 1.623-.11 2.36-.26 2.14-.445 3.726-2.672 3.357-4.713-.148-.817.258-1.633 1.07-1.782 1.216-.185 2.434-.185 3.761-.297-.516 1.596-.995 2.97-1.475 4.38-.48 1.41-.959 2.784-1.438 4.306.332 0 .516.037.737 0 .48-.075.627.148.738.593.148.557.443 1.077.774 1.56.332.445.775.779 1.218 1.187-.37.223-.701.408-.996.594-1.033.705-1.512 1.707-1.291 2.97.184 1.261.996 2.078 2.176 2.412 1.844.482 3.983.297 5.164-1.596h.11c.074.556.185 1.113.258 1.67.037.334.185.445.554.371.553-.148 1.106-.26 1.66-.334.405-.074.516-.26.516-.63 0-1.968.037-3.935.073-5.902 0-.52.111-1.04.259-1.522.11-.446.442-.742.959-.742.516 0 .848.334.995.816.111.334.185.668.185 1.002.037 1.745.037 3.49.037 5.197v.89c.848-.37 1.549-.705 2.287-1.002.59-.223.774-.594.737-1.225-.184-2.56-.516-5.01-3.209-6.31v-.074h3.984l.664-3.34c-.222 0-.37.037-.406.111-.369.854-1.07 1.002-1.881.965h-2.508c0-.074-.037-.111-.074-.185.074-.038.184-.075.221-.149 1.107-1.262 2.287-2.487 3.283-3.86 1.033-1.448 1.29-3.229-.148-4.75 0 0 0-.075.037-.15.996 0 1.992.038 2.988 0 .516 0 .848.075 1.032.669.111.334.517.594.812.816.221.186.48.26.774.409-.073.074-.147.111-.184.185-2.655 1.708-3.836 4.194-3.836 7.35 0 2.486 1.402 4.453 3.504 5.047.59.149.885-.074 1.143-.52-.737-.297-1.032-.593-1.254-1.447-.405-1.522-.553-3.08-.368-4.64.073-.705.368-.928 1.07-.928.552 0 .921.297 1.106.78.221.594.442 1.225.48 1.856.073 1.076.036 2.19.036 3.303.037-.037.11-.037.148-.074.848-1.15 1.696-2.301 2.544-3.415a.72.72 0 0 0 .111-.371c-.074-1.633-1.549-3.118-3.172-3.118-.664 0-1.364.149-2.065.26.258-1.114.7-2.19 1.549-3.08.553-.557 1.143-.854 1.992-.891 1.844-.038 3.503-.631 4.831-1.968.185-.185.332-.445.369-.668.369-2.115.369-4.082.332-6.124ZM36.956 6.83c0-.334.111-.63.222-.927.147-.409.48-.669.959-.669.48 0 .774.297.922.706.11.37.221.78.221 1.187 0 2.933 0 5.865-.037 8.797 0 .334-.147.705-.295 1.04-.147.407-.48.556-.885.556-.443-.037-.812-.223-.885-.668a26.93 26.93 0 0 1-.332-2.487c-.037-.89 0-1.744 0-2.635h-.037c.037-1.633.074-3.266.147-4.9ZM13.02 22.455c0 .075-.148.223-.222.26h-2.692c.996-1.373 1.918-2.598 2.84-3.823.037 0 .074.037.11.037-.036 1.188-.036 2.376-.036 3.526Zm-5.939-6.31c-.516.15-1.032.223-1.364-.222-.332-.52-.664-1.114-.7-1.707-.112-1.188-.075-2.413-.038-3.638 0-.334.221-.705.443-.928.405-.408 1.18-.222 1.438.446.332.928.48 1.893.7 2.858.075.37.001.78.001 1.187v1.077c0 .408 0 .78-.48.928Zm27.183-9.353c0-.78 0-.78.885-.705-.295.594-.553 1.188-.811 1.745-.037 0-.037-.038-.074-.038 0-.334-.037-.668 0-1.002Zm-9.147 6.755c-.074-.37 0-.742 0-1.15h-.037c0-.297.037-.557.037-.854 0-.334-.037-.705.406-.816.442-.112.885-.112 1.18.297.221.334.406.705.443 1.076.073.965.073 1.93.073 2.895 0 .149-.037.371-.147.483-.184.222-.406.52-.627.556-.258 0-.664-.222-.738-.445-.295-.631-.442-1.336-.59-2.042Zm-6.122 8.537c0-.297.073-.668.258-.928.147-.222.516-.445.774-.408.222 0 .59.26.664.483.148.482.222 1.002.222 1.521.036.891 0 1.782 0 2.673h-.037c0 1.039.037 2.041 0 3.08 0 .446-.111.854-.222 1.3-.11.37-.369.556-.774.52-.406 0-.664-.224-.738-.595a5.912 5.912 0 0 1-.184-1.41c-.037-2.042 0-4.157.037-6.236ZM24.49 51.11c-.516-.037-.959-.26-1.18-.742-.221-.52-.295-1.076-.48-1.67.185-.706.295-1.41.554-2.079.22-.557.405-.594.885-.223.848.706 1.586 1.485 1.77 2.636.185 1.188-.516 2.115-1.549 2.078Zm1.402-7.572c-.074.186-.185.335-.332.557-.96-.668-1.808-1.262-2.176-2.375-.259-.891.184-1.819.995-2.005.775-.185 1.476.26 1.697 1.225a3.951 3.951 0 0 1-.184 2.599Zm8.372-6.458c-1.033 1.485-2.176 2.895-3.283 4.306-.147.185-.295.408-.553.705.443.037.775.037 1.107.037-2.14.89-2.767 2.747-3.135 4.677a91.802 91.802 0 0 0-1.955-2.264c.074-.075.221-.186.369-.26 1.217-.78 1.696-1.782 1.438-3.007-.221-1.076-1.254-2.004-2.545-2.115-1.033-.112-2.065-.186-3.024.334-.406.223-.738.52-1.217.854.996-2.97 1.954-5.79 2.913-8.686-.184-.037-.295-.074-.442-.074-1.77 0-3.578 0-5.348-.037-.369 0-.553.074-.627.445-.11.631-.295 1.262-.443 1.893-.037.186-.11.334-.184.631-1.291-2.19-3.393-2.635-5.57-2.82.222-1.04.222-1.04 1.144-1.04 1.033 0 2.102-.037 3.135.037.553.037.922-.111 1.033-.705.037-.148.11-.297.221-.482.11.074.184.11.221.148 1.291 1.967 3.873 1.819 5.053-.52.295-.556.406-1.187.553-1.781.074-.26.148-.446.48-.446 1.106.038 2.25 0 3.356.038.074 0 .11.037.295.074-.295.148-.553.26-.737.408-1.66 1.076-2.14 3.786-.96 5.382.665.89 1.919 1.262 3.099.854.147-.038.258-.112.516-.186-.516 2.45-2.139 3.526-4.352 4.046.037.037.037.111.074.148.11.037.221.111.332.074 2.545-.185 5.126-1.336 6.196-4.268.332-.928 1.07-1.373 2.029-1.262.885.111 1.585.928 1.66 1.856.036 1.076-.222 2.115-.849 3.006Zm-6.934-8.87c.037-.372.221-.706.664-.743.48-.037.811.223.922.631.258 1.04.443 2.079.664 3.08-.037 0-.074 0-.11.038 0 .26-.038.52-.038.78-.037.333 0 .704-.442.816-.48.111-.996.111-1.18-.371-.259-.594-.48-1.262-.517-1.893-.147-.78-.037-1.56.037-2.338Zm10.29 1.113c0 .89-.811 1.448-1.696 1.113-1.476-.556-2.767-.37-4.057.78a25.506 25.506 0 0 0-.111-.854c-.258-1.67-1.07-2.895-2.766-3.415-.406-.11-.848-.222-1.217-.445-.258-.148-.48-.445-.627-.742-.111-.26-.074-.557-.074-.854 0-2.598.037-5.196.037-7.794 0-.409.147-.594.48-.78 1.843-.89 2.581-3.637 1.475-5.345-.664-1.039-1.918-1.484-3.21-1.113-.147.037-.331.111-.552.186.516-2.265 1.954-3.452 3.983-3.935.774-.185 1.623-.111 2.434-.111.11 0 .332.297.332.445.037.557 0 1.15 0 1.782h2.066c-.111 1.596-.185 3.118-.296 4.714-.959 0-2.028.074-2.95.742-.885.63-1.476 1.522-1.807 2.672.184-.074.368-.148.516-.26.516-.334.959-.816 1.512-1.039.775-.334 1.512-.074 2.066.52.59.594.7 1.336.442 2.115-.332.966-1.033 1.448-1.955 1.745-.184.074-.332.223-.516.334.184.111.332.297.516.334 1.881.631 3.098 2.079 3.135 3.786.037.817-.22 1.522-.959 1.93-.7.408-1.401.186-2.028-.223-.443-.297-.848-.63-1.254-.965-.443-.334-.922-.63-1.439-.26-.295.223-.553.631-.59 1.003-.073.593.332 1.002.849 1.224 3.32 1.225 7.597-.408 7.708-4.49 0-.075.037-.186.037-.298.443.112.59.409.59.78-.037 2.301-.037 4.528-.074 6.718Z"/>
    <path d="M18.552 40.79v10.876c-1.033-.334-1.955-.594-2.877-.928-.11-.037-.184-.334-.184-.52 0-1.744 0-3.451.037-5.196v-.445c-.074-1.002-.553-1.373-1.55-1.15-.147.036-.331.11-.479.148-.147 0-.295-.075-.442-.112v-.222c1.807-.854 3.54-1.745 5.495-2.45ZM16.855 2.858c-.48 1.373-.885 2.672-1.328 3.934l-1.991 5.902c-.332.965-.406 1.04-1.512.78.922-2.784 1.88-5.568 2.84-8.5h-2.73c-.959 0-1.696.37-2.213 1.299-.22-.78.111-1.856.664-2.19.59-.371 1.217-.705 1.807-1.077.111-.074.259-.148.37-.148h4.093Zm9.442-.408c0 .185 0 .334-.037.52-.147.853-.332 1.67-.516 2.523-.037.112-.184.297-.295.297h-6.786c.147-.26.258-.445.368-.594.996-1.299 2.029-2.56 3.025-3.86.11-.148.221-.26.295-.445.332-1.114 1.217-1.04 2.213-.78-.996 1.077-1.992 2.19-3.061 3.378h2.95c.627 0 1.143-.186 1.439-.817.073-.148.184-.222.295-.334.037.075.073.112.11.112Z"/>
    <path fill-rule="evenodd" clip-rule="evenodd" d="M62 14h1.978v8.77h2.894v1.933H62V14Zm36.08 0h2.122c1.158 0 1.978.1 2.46.347.483.198.917.545 1.206 1.04.29.496.434 1.04.434 1.735 0 .743-.193 1.387-.578 1.883-.386.495-.917.842-1.544 1.04-.386.1-1.061.149-2.074.149v4.509h-1.978V14h-.048Zm1.978 4.212h.627c.482 0 .868-.05 1.061-.1.193-.098.338-.198.482-.346.097-.149.145-.397.145-.595 0-.396-.145-.694-.482-.892-.242-.148-.676-.198-1.255-.198h-.578v2.13Zm-31.932-2.23h1.64v5.649c0 .495.048.842.145 1.04.096.198.24.347.434.496.193.099.434.198.675.198.29 0 .53-.05.724-.198.192-.149.337-.298.434-.496.096-.198.096-.594.096-1.189v-5.45h1.64v5.202c0 .892-.048 1.487-.145 1.834a2.812 2.812 0 0 1-.53.99c-.29.298-.579.546-.965.694A3.152 3.152 0 0 1 71.02 25c-.627 0-1.158-.149-1.592-.446-.482-.297-.772-.644-.965-1.09-.192-.446-.289-1.19-.289-2.23v-5.252h-.048Zm15.483 1.536-1.157 1.09c-.772-.842-1.64-1.239-2.605-1.239-.82 0-1.495.298-2.074.843-.579.594-.82 1.288-.82 2.13 0 .595.145 1.09.386 1.536.241.446.579.793 1.061 1.09.434.248.965.397 1.495.397.483 0 .917-.1 1.303-.248.386-.198.82-.495 1.302-.99l1.11 1.188c-.628.644-1.207 1.09-1.785 1.338-.58.248-1.206.347-1.93.347-1.302 0-2.411-.446-3.231-1.288-.869-.843-1.255-1.982-1.255-3.32 0-.892.193-1.635.58-2.329a4.067 4.067 0 0 1 1.64-1.635c.723-.396 1.495-.644 2.314-.644.724 0 1.4.148 2.026.446a4.543 4.543 0 0 1 1.64 1.288Zm4.004-1.536h1.64l3.28 8.77h-1.688l-.676-1.784h-3.472l-.676 1.784h-1.688l3.28-8.77Zm.82 2.329-1.158 3.022h2.316l-1.158-3.022Zm20.162-2.329h1.64l3.28 8.77h-1.688l-.675-1.784h-3.473l-.675 1.784h-1.689l3.28-8.77Zm.82 2.329-1.157 3.022h2.315l-1.158-3.022Zm13.169-.793-1.158 1.09c-.772-.842-1.64-1.239-2.605-1.239-.82 0-1.495.298-2.074.843-.579.594-.82 1.288-.82 2.13 0 .595.145 1.09.386 1.536.241.446.579.793 1.061 1.09.434.248.965.397 1.495.397.483 0 .917-.1 1.303-.248.386-.198.82-.495 1.302-.99l1.11 1.188c-.628.644-1.206 1.09-1.785 1.338s-1.206.347-1.93.347c-1.302 0-2.411-.446-3.231-1.288-.869-.843-1.254-1.982-1.254-3.32 0-.892.192-1.635.578-2.329a4.07 4.07 0 0 1 1.64-1.635c.724-.396 1.496-.644 2.316-.644.723 0 1.398.148 2.026.446.627.297 1.205.693 1.64 1.288Zm1.302-1.536h1.592v8.77h-1.592v-8.77Zm7.476-.248c1.206 0 2.219.446 3.087 1.338.869.892 1.303 1.982 1.303 3.27 0 1.289-.434 2.379-1.303 3.221-.868.892-1.881 1.338-3.135 1.338-1.302 0-2.363-.446-3.183-1.387-.869-.892-1.255-1.982-1.255-3.221 0-.842.193-1.586.579-2.329.386-.694.917-1.239 1.64-1.685.724-.347 1.496-.545 2.267-.545Zm0 1.635c-.771 0-1.447.298-1.977.843-.531.545-.82 1.288-.82 2.13 0 .991.337 1.735 1.013 2.28.53.446 1.109.644 1.784.644.772 0 1.399-.297 1.978-.843a3.08 3.08 0 0 0 .82-2.13 3.08 3.08 0 0 0-.82-2.13c-.579-.496-1.206-.794-1.978-.794Zm5.933-1.387h1.592v7.185h2.364v1.585h-4.004v-8.77h.048Zm5.113 0H144v8.77h-1.592v-8.77ZM69.851 31.427l-1.07.977c-.754-.751-1.547-1.09-2.498-1.09-.793 0-1.428.264-1.943.752a2.485 2.485 0 0 0-.794 1.84c0 .526.12.977.357 1.352.238.413.556.714.992.94.436.224.912.337 1.427.337a3.24 3.24 0 0 0 1.23-.225c.356-.15.793-.45 1.229-.864l1.03 1.052c-.594.563-1.15.939-1.704 1.164-.516.225-1.15.338-1.824.338-1.27 0-2.3-.376-3.093-1.127-.793-.75-1.19-1.727-1.19-2.892 0-.751.198-1.465.555-2.028a3.573 3.573 0 0 1 1.586-1.427c.674-.376 1.428-.526 2.22-.526.675 0 1.31.15 1.944.413.555.113 1.07.526 1.546 1.014Zm36.482 6.31v-7.662h1.268c.754 0 1.269.038 1.626.15.476.113.873.338 1.15.676.278.338.436.714.436 1.165 0 .3-.079.563-.198.788-.119.226-.357.451-.634.677.476.225.832.488 1.07.826.238.338.357.713.357 1.164 0 .413-.119.826-.357 1.164-.238.338-.555.639-.912.79-.357.187-.872.262-1.546.262h-2.26Zm1.546-6.272v1.615h.357c.396 0 .674-.075.872-.225.199-.15.278-.339.278-.601a.661.661 0 0 0-.278-.564c-.158-.15-.436-.225-.793-.225h-.436Zm0 2.93v1.952h.397c.634 0 1.07-.075 1.308-.225.238-.15.357-.376.357-.676 0-.338-.119-.6-.397-.789-.277-.188-.713-.3-1.308-.3h-.357v.037Zm21.254-4.32h1.507l1.903 5.371 1.904-5.37h1.507l1.348 7.661h-1.507l-.872-4.845-1.705 4.845h-1.349l-1.705-4.845-.872 4.845h-1.507l1.348-7.662Zm-55.911 1.052h1.348l2.697 6.648h-1.388l-.555-1.352h-2.855l-.595 1.314h-1.388l2.736-6.61Zm.674 1.765-.952 2.291h1.904l-.952-2.291Zm4.362 4.845V31.09h1.11c.635 0 1.11.038 1.388.113.436.113.754.3.991.6.238.301.357.64.357 1.015 0 .263-.04.488-.158.676-.12.188-.278.413-.555.563.436.188.753.413.951.714.198.3.278.6.278 1.014 0 .376-.12.714-.317 1.014-.199.3-.476.526-.793.676-.318.15-.754.226-1.349.226h-1.903v.037Zm1.348-5.408v1.39h.317c.318 0 .595-.076.754-.188.158-.113.238-.301.238-.526 0-.226-.08-.376-.238-.489-.159-.112-.397-.187-.714-.187h-.357Zm0 2.516v1.69h.357c.555 0 .952-.075 1.15-.188a.662.662 0 0 0 .278-.563c0-.3-.12-.526-.357-.676-.238-.15-.595-.263-1.15-.263h-.278Zm4.243-3.718h1.309v6.61h-1.309v-6.61Zm2.815 0h1.27l3.013 4.357v-4.357h1.309v6.61h-1.27l-3.013-4.357v4.357h-1.309v-6.61Zm7.217 0h3.807v1.24H95.19v1.201h2.498v1.202H95.19v1.728h2.498v1.24h-3.807v-6.611Zm4.402 0h3.886v1.24H100.9v5.37h-1.348v-5.37h-1.23v-1.24h-.04Zm14.473 0h3.807v1.24h-2.498v1.201h2.498v1.202h-2.498v1.728h2.498v1.24h-3.807v-6.611Zm5.076 0h1.269l3.014 4.357v-4.357h1.308v6.61h-1.269l-3.013-4.357v4.357h-1.309v-6.61Zm22.682 0h1.348l2.696 6.648h-1.387l-.556-1.352h-2.855l-.555 1.352h-1.388l2.697-6.648Zm.674 1.765-.952 2.291h1.904l-.952-2.291Zm4.401-1.765h1.349v2.516h2.339v-2.516h1.348v6.61h-1.348v-2.892h-2.339v2.892h-1.349v-6.61Zm7.297 0h1.308l1.626 4.62 1.626-4.62h1.308l1.19 6.648h-1.269l-.753-4.207-1.467 4.207h-1.19l-1.467-4.207-.754 4.207h-1.308l1.15-6.648Zm11.42-.188c.991 0 1.824.338 2.538 1.014.713.676 1.07 1.502 1.07 2.479 0 .976-.357 1.803-1.07 2.441-.714.676-1.547 1.014-2.578 1.014-1.07 0-1.943-.338-2.617-1.051-.714-.676-1.031-1.503-1.031-2.442 0-.638.159-1.201.476-1.765.317-.526.753-.939 1.348-1.277a4.629 4.629 0 0 1 1.864-.413Zm0 1.24a2.31 2.31 0 0 0-1.626.638c-.436.413-.674.976-.674 1.615 0 .751.278 1.314.833 1.728.436.338.912.488 1.467.488.634 0 1.15-.226 1.626-.639.436-.45.674-.976.674-1.615 0-.638-.238-1.164-.674-1.615-.476-.375-.992-.6-1.626-.6Zm4.838-1.052h1.348v4.281c0 .376.039.639.119.79.079.15.198.262.357.375.158.075.357.15.555.15.238 0 .436-.038.595-.15a1.1 1.1 0 0 0 .357-.376c.079-.15.079-.45.079-.901v-4.132h1.348v3.944c0 .676-.04 1.127-.119 1.39a2.086 2.086 0 0 1-.436.75c-.238.226-.476.414-.793.527a2.785 2.785 0 0 1-1.031.187c-.516 0-.952-.112-1.309-.338-.396-.225-.634-.488-.793-.826-.158-.338-.238-.901-.238-1.69v-3.981h-.039Zm6.305 0h1.586c1.031 0 1.784.112 2.26.375.476.226.912.639 1.229 1.165.317.526.476 1.164.476 1.878 0 .525-.079.976-.278 1.427-.198.413-.436.789-.753 1.051a2.63 2.63 0 0 1-1.031.601c-.357.113-.991.15-1.903.15h-1.586v-6.647Zm1.348 1.202v4.169h.634c.595 0 1.031-.075 1.309-.188.277-.15.515-.338.674-.676.158-.3.277-.714.277-1.165 0-.713-.198-1.239-.634-1.652-.357-.338-.991-.526-1.784-.526h-.476v.038Z"/>
  </g>
  <defs>
    <clipPath id="svg1011929192_18173_a">
      <path fill="#fff" d="M0 0h177v52H0z"/>
    </clipPath>
  </defs>
</svg>