<svg width="2048" height="2048" viewBox="0 0 2048 2048" fill="none" xmlns="http://www.w3.org/2000/svg">
<g clip-path="url(#clip0_5_6)">
<path d="M0 0C675.84 0 1351.68 0 2048 0C2048 675.84 2048 1351.68 2048 2048C1372.16 2048 696.32 2048 0 2048C0 1372.16 0 696.32 0 0Z" fill="#0F1631"/>
<path d="M829.062 652.625C829.88 652.626 830.698 652.627 831.541 652.628C844.08 652.672 855.937 653.296 868 657C868.822 657.247 869.643 657.493 870.49 657.748C882.254 661.368 893.193 666.147 904 672C904.649 672.343 905.298 672.685 905.966 673.038C916.939 678.837 927.047 685.598 937 693C937.621 693.462 938.243 693.923 938.883 694.399C946.922 700.423 954.371 706.938 961.648 713.859C964.015 716.105 966.44 718.263 968.91 720.395C973.139 724.071 977.113 727.965 981.062 731.937C981.731 732.602 982.399 733.267 983.088 733.951C987.026 737.896 990.776 741.951 994.417 746.172C996.519 748.599 998.696 750.954 1000.88 753.312C1005.8 758.715 1010.43 764.302 1015 770C1015.91 771.12 1016.83 772.24 1017.74 773.359C1025.83 783.325 1033.48 793.596 1041 804C1041.52 804.719 1042.04 805.439 1042.58 806.18C1050.77 817.538 1058.46 829.2 1066 841C1066.48 841.754 1066.97 842.509 1067.47 843.286C1080.62 863.802 1093.09 884.751 1105.6 905.66C1107.01 908.016 1108.42 910.369 1109.84 912.723C1117.18 924.926 1124.45 937.174 1131.7 949.428C1154.2 987.492 1154.2 987.492 1177.26 1025.21C1179.08 1028.13 1180.89 1031.04 1182.7 1033.96C1198.99 1060.16 1215.79 1086.08 1234 1111C1234.79 1112.09 1234.79 1112.09 1235.6 1113.19C1243.2 1123.63 1250.94 1133.91 1259 1144C1260.06 1145.33 1260.06 1145.33 1261.14 1146.7C1263.09 1149.14 1265.04 1151.57 1267 1154C1268.02 1155.27 1268.02 1155.27 1269.07 1156.57C1271.36 1159.39 1273.68 1162.2 1276 1165C1276.42 1165.5 1276.83 1166.01 1277.26 1166.53C1284.83 1175.64 1292.87 1184.16 1301.28 1192.49C1303.27 1194.45 1305.24 1196.43 1307.22 1198.4C1313.31 1204.48 1319.4 1210.48 1326 1216C1327.13 1216.97 1328.26 1217.95 1329.39 1218.92C1332.32 1221.44 1335.27 1223.95 1338.21 1226.47C1339.89 1227.9 1341.56 1229.35 1343.23 1230.8C1369.83 1253.75 1401.59 1277.09 1438 1277.25C1439.16 1277.27 1440.31 1277.29 1441.5 1277.31C1451.34 1277.36 1460.46 1275.88 1469.62 1272.25C1473 1271 1473 1271 1476 1272C1468.48 1277.53 1460.6 1282.36 1452.62 1287.19C1449.17 1289.28 1445.76 1291.41 1442.36 1293.57C1380.49 1332.83 1312.2 1366.39 1239.56 1379.44C1238.3 1379.67 1238.3 1379.67 1237 1379.9C1223.37 1382.14 1209.42 1382.24 1195.62 1382.25C1194.48 1382.25 1194.48 1382.25 1193.31 1382.25C1181.93 1382.24 1171.1 1381.66 1160 1379C1158.68 1378.73 1157.37 1378.46 1156.05 1378.19C1122.53 1371.04 1093.16 1350.01 1068.41 1327.2C1067.05 1325.96 1065.69 1324.73 1064.3 1323.54C1058.58 1318.63 1053.25 1313.4 1047.94 1308.06C1047.08 1307.21 1046.22 1306.35 1045.33 1305.47C1040.35 1300.48 1035.58 1295.37 1031 1290C1030.04 1288.91 1029.08 1287.81 1028.11 1286.72C995.125 1248.98 970.299 1204.02 945.845 1160.54C941.948 1153.63 937.957 1146.78 933.938 1139.94C928.926 1131.4 924.1 1122.78 919.394 1114.07C915.58 1107.02 911.639 1100.06 907.645 1093.11C903.666 1086.19 899.764 1079.22 895.875 1072.25C890.802 1063.16 885.633 1054.15 880.31 1045.21C878.862 1042.77 877.425 1040.32 875.988 1037.88C860.063 1010.79 843.642 984.011 826 958C825.445 957.18 824.89 956.359 824.318 955.514C808.272 931.818 791.929 908.322 774 886C773.491 885.365 772.982 884.73 772.458 884.076C752.357 859.032 730.942 832.648 705.469 812.914C702.724 810.786 700.126 808.522 697.5 806.25C669.029 782.537 635.879 765.372 598 768C593.237 768.6 588.622 769.714 584 771C583.205 771.213 582.409 771.425 581.59 771.645C580.052 772.069 578.524 772.528 577 773C580.714 769.111 584.623 765.828 588.938 762.625C589.629 762.11 590.321 761.594 591.034 761.063C600.489 754.086 610.248 747.551 620 741C621.656 739.883 623.312 738.766 624.968 737.648C647.085 722.74 669.544 708.728 693 696C694.086 695.41 695.172 694.821 696.291 694.213C713.122 685.137 730.26 677.137 748 670C749.443 669.416 749.443 669.416 750.916 668.821C775.98 658.821 802.049 652.554 829.062 652.625Z" fill="#E5E7EB"/>
<path d="M1442 786C1449.99 792.603 1457.3 799.87 1464.03 807.75C1466.08 810.089 1468.18 812.361 1470.31 814.632C1475.33 820.015 1480.11 825.506 1484.72 831.254C1487.22 834.263 1489.84 837.139 1492.5 840C1497.58 845.477 1502.35 851.152 1507 857C1507.82 858.022 1508.63 859.044 1509.48 860.098C1512.35 863.708 1515.18 867.349 1518 871C1518.58 871.744 1519.15 872.489 1519.74 873.255C1529.14 885.45 1537.87 897.932 1546 911C1546.45 911.712 1546.89 912.424 1547.35 913.157C1567.62 945.649 1580.53 981.509 1580.31 1020.06C1580.31 1020.78 1580.31 1021.5 1580.3 1022.24C1580.01 1077.65 1555.98 1132.32 1520 1174C1519.34 1174.77 1518.69 1175.54 1518.01 1176.33C1499.52 1197.4 1479.4 1214.85 1453 1225C1452.05 1225.38 1451.1 1225.76 1450.12 1226.15C1416.12 1238.71 1377.56 1230.93 1345.44 1216.56C1328.92 1208.91 1313.33 1199.5 1300 1187C1301.34 1182.97 1303.82 1182.23 1307.38 1180.38C1348 1158.14 1369.82 1107.13 1390.65 1068.23C1393.18 1063.52 1395.74 1058.82 1398.33 1054.14C1416.78 1020.66 1434.37 986.493 1447.14 950.399C1447.89 948.295 1448.67 946.206 1449.48 944.121C1467.17 897.285 1467.51 843.858 1447 798C1445.67 795.259 1444.31 792.544 1442.88 789.855C1442 788 1442 788 1442 786Z" fill="#E2E5EA"/>
<path d="M723 834C723 834.66 723 835.32 723 836C722.25 836.28 721.499 836.559 720.726 836.848C684.804 850.918 665.415 889.511 650.409 922.76C642.605 940.708 636.358 959.194 631 978C630.481 979.776 629.961 981.552 629.441 983.328C603.774 1072.07 579.823 1168.29 628.177 1269.18C630.034 1272.51 631.97 1275.78 634 1279C629.733 1277.35 626.88 1274.15 623.73 1270.96C623.131 1270.36 622.532 1269.76 621.914 1269.14C620.647 1267.87 619.382 1266.6 618.12 1265.33C616.21 1263.4 614.292 1261.48 612.373 1259.56C606.891 1254.06 601.447 1248.57 596.413 1242.66C594.132 1239.98 591.714 1237.44 589.312 1234.87C584.078 1229.24 579.045 1223.46 574.07 1217.6C571.981 1215.14 569.871 1212.7 567.742 1210.27C561.526 1203.18 555.522 1195.99 549.75 1188.53C547.364 1185.45 544.923 1182.42 542.47 1179.39C536.33 1171.81 530.536 1164.04 525 1156C524.59 1155.41 524.181 1154.82 523.759 1154.2C495.989 1113.85 478.454 1070.58 478.687 1021.19C478.69 1020.36 478.692 1019.53 478.694 1018.68C478.747 1005.91 479.251 993.512 482 981C482.204 980.061 482.408 979.122 482.618 978.155C490.941 940.853 505.708 905.153 528 874C528.421 873.402 528.843 872.804 529.277 872.188C550.304 842.688 582.066 817.877 618.457 811.473C654.181 807.112 692.026 815.885 723 834Z" fill="#E8EAEE"/>
<path d="M1458 1223C1431.41 1233.52 1406.82 1233.69 1379 1228C1379 1227.67 1379 1227.34 1379 1227C1384.05 1226.83 1388.6 1227.03 1393.57 1227.99C1399.79 1229.06 1405.82 1229.35 1412.12 1229.31C1413.21 1229.31 1414.29 1229.3 1415.4 1229.3C1427.99 1229.12 1440.2 1227.77 1451.84 1222.67C1454.32 1221.9 1455.58 1222.14 1458 1223Z" fill="#A8ADBE"/>
<path d="M634 811C634 811.33 634 811.66 634 812C633.301 812.121 632.603 812.242 631.883 812.367C630.973 812.535 630.063 812.702 629.125 812.875C628.22 813.037 627.315 813.2 626.383 813.367C623.835 813.83 623.835 813.83 622 816C621.67 815.67 621.34 815.34 621 815C619.496 815.066 617.995 815.204 616.5 815.375C615.605 815.474 614.711 815.574 613.789 815.676C612.869 815.783 611.948 815.89 611 816C609.292 816.188 607.583 816.375 605.875 816.562C604.596 816.707 603.317 816.851 602 817C605.656 814.563 609.276 813.804 613.5 812.875C614.304 812.696 615.107 812.517 615.935 812.333C622.007 811.053 627.79 810.508 634 811Z" fill="#AEB5C4"/>
<path d="M1476 1272C1474.4 1273.15 1472.79 1274.3 1471.19 1275.44C1469.85 1276.39 1469.85 1276.39 1468.48 1277.37C1466 1279 1466 1279 1463 1280C1463 1278.35 1463 1276.7 1463 1275C1464.6 1274.3 1466.2 1273.62 1467.81 1272.94C1468.71 1272.55 1469.6 1272.17 1470.52 1271.78C1473 1271 1473 1271 1476 1272Z" fill="#DFDFE4"/>
<path d="M1340 1152C1340.33 1152.66 1340.66 1153.32 1341 1154C1336.24 1159.59 1331.25 1164.87 1326 1170C1325.34 1169.67 1324.68 1169.34 1324 1169C1324.74 1168.28 1325.47 1167.55 1326.23 1166.8C1333.43 1159.69 1333.43 1159.69 1340 1152Z" fill="#C0C6D0"/>
<path d="M641 811C647.95 810.734 654.235 811.388 661 813C660.34 813.66 659.68 814.32 659 815C658.01 815 657.02 815 656 815C656 814.34 656 813.68 656 813C651.38 813 646.76 813 642 813C641.67 812.34 641.34 811.68 641 811Z" fill="#B1B8C8"/>
<path d="M592 767C591 769 591 769 588.348 770.105C587.264 770.463 586.179 770.82 585.062 771.187C583.981 771.552 582.899 771.917 581.785 772.293C579 773 579 773 577 772C581.886 766.988 585.098 766.31 592 767Z" fill="#EDEDF0"/>
<path d="M1300 1187C1301.32 1187.95 1302.63 1188.91 1303.94 1189.88C1304.67 1190.41 1305.4 1190.94 1306.15 1191.49C1308 1193 1308 1193 1309 1195C1305.62 1194.75 1305.62 1194.75 1302 1194C1300.06 1191.47 1300 1190.22 1300 1187Z" fill="#161B37"/>
<path d="M1308 1199C1311.63 1199.57 1313.26 1200.92 1315.75 1203.56C1316.36 1204.2 1316.98 1204.84 1317.61 1205.5C1318.07 1206 1318.53 1206.49 1319 1207C1318.34 1207.66 1317.68 1208.32 1317 1209C1315.5 1207.52 1314 1206.04 1312.5 1204.56C1311.66 1203.74 1310.83 1202.92 1309.97 1202.07C1308 1200 1308 1200 1308 1199Z" fill="#1B213C"/>
<path d="M707 841C707.99 841.33 708.98 841.66 710 842C708.625 842.917 707.25 843.833 705.875 844.75C705.059 845.294 704.243 845.838 703.402 846.398C702.61 846.927 701.817 847.455 701 848C700.362 848.425 699.724 848.851 699.066 849.289C698.529 849.647 697.991 850.006 697.438 850.375C696.633 850.911 695.829 851.448 695 852C696.494 848.193 698.619 846.502 701.938 844.188C702.813 843.562 703.688 842.937 704.59 842.293C705.385 841.866 706.181 841.44 707 841Z" fill="#BBC1CF"/>
<path d="M1476 1272C1474.02 1273.32 1472.04 1274.64 1470 1276C1469.01 1275.34 1468.02 1274.68 1467 1274C1472.62 1270.88 1472.62 1270.88 1476 1272Z" fill="#CFD1D6"/>
<path d="M1306 1182C1306 1182.66 1306 1183.32 1306 1184C1305.01 1184.49 1305.01 1184.49 1304 1185C1304 1186.65 1304 1188.3 1304 1190C1302.68 1189.01 1301.36 1188.02 1300 1187C1301.13 1183.62 1302.21 1182 1306 1182Z" fill="#B9BECA"/>
<path d="M717 832C718.98 832.66 720.96 833.32 723 834C723 834.66 723 835.32 723 836C721.02 836.66 719.04 837.32 717 838C717 836.02 717 834.04 717 832Z" fill="#B0B8C8"/>
<path d="M585 824C584 827 584 827 582.188 828.25C579.661 829.116 578.478 828.885 576 828C582.75 824 582.75 824 585 824Z" fill="#C0C5D0"/>
<path d="M1442 786C1443.98 787.65 1445.96 789.3 1448 791C1447.01 791.495 1447.01 791.495 1446 792C1445.67 792.66 1445.34 793.32 1445 794C1442 788.25 1442 788.25 1442 786Z" fill="#CFD3DA"/>
</g>
<defs>
<clipPath id="clip0_5_6">
<rect width="2048" height="2048" fill="white"/>
</clipPath>
</defs>
</svg>
